<svg xmlns="http://www.w3.org/2000/svg" viewBox="0 0 800 450"><defs><linearGradient id="guideBrightBg" x1="0%" y1="0%" x2="100%" y2="100%"><stop offset="0%" stop-color="#d2f2ff"/><stop offset="52%" stop-color="#c9d6ff"/><stop offset="100%" stop-color="#e7ccff"/></linearGradient></defs><title>AI and small business marketing illustration</title><rect width="800" height="450" rx="28" fill="url(#guideBrightBg)"/><rect x="72" y="88" width="400" height="230" rx="24" fill="#fff" stroke="#b9c9ef" stroke-width="8"/><rect x="104" y="120" width="336" height="150" rx="14" fill="#eaf1ff"/><circle cx="156" cy="166" r="17" fill="#4f67db"/><rect x="192" y="154" width="166" height="22" rx="11" fill="#9db4e5"/><rect x="140" y="208" width="104" height="14" rx="7" fill="#5f7bd8"/><rect x="256" y="208" width="147" height="14" rx="7" fill="#c4d3ef"/><path d="M548 132c38 0 38 58 76 58s38-58 76-58" fill="none" stroke="#4f67db" stroke-width="12" stroke-linecap="round"/><path d="M548 282c38 0 38-58 76-58s38 58 76 58" fill="none" stroke="#2d9a72" stroke-width="12" stroke-linecap="round"/><circle cx="548" cy="132" r="17" fill="#4f67db"/><circle cx="700" cy="132" r="17" fill="#4f67db"/><circle cx="548" cy="282" r="17" fill="#2d9a72"/><circle cx="700" cy="282" r="17" fill="#2d9a72"/><text x="72" y="382" font-family="Arial,sans-serif" font-size="32" font-weight="700" fill="#243b78">AI FOR SMALL BUSINESS</text></svg>