<svg xmlns="http://www.w3.org/2000/svg" viewBox="0 0 800 450"><title>Women’s health and beauty editorial illustration</title><rect width="800" height="450" rx="28" fill="#fff0f6"/><circle cx="196" cy="174" r="84" fill="#f3d7e5"/><path d="M196 112c-30 28-44 58-44 88 0 32 20 60 44 60s44-28 44-60c0-30-14-60-44-88Z" fill="#c26a93"/><path d="M125 286c38-28 104-28 142 0" fill="none" stroke="#c26a93" stroke-width="12" stroke-linecap="round"/><rect x="386" y="104" width="90" height="190" rx="22" fill="#fff" stroke="#e4bfd0" stroke-width="8"/><rect x="505" y="138" width="90" height="156" rx="20" fill="#fff" stroke="#e4bfd0" stroke-width="8"/><rect x="410" y="80" width="42" height="34" rx="10" fill="#d8a1ba"/><rect x="529" y="114" width="42" height="34" rx="10" fill="#d8a1ba"/><path d="M635 126c26 20 35 46 28 76-7 30-33 54-65 58" fill="none" stroke="#e5a2bd" stroke-width="12" stroke-linecap="round"/><text x="72" y="390" font-family="Arial,sans-serif" font-size="34" font-weight="700" fill="#6f3151">WOMEN’S HEALTH &amp; BEAUTY</text></svg>